<svg xmlns="http://www.w3.org/2000/svg" width="1366" height="768" viewBox="0 0 1366 768">
    <g fill="none" fill-rule="evenodd">
        <path fill="#FFF" d="M176.917.004L176.917 390.001 254.917 364.001 254.917 26.003 176.917.004M488.917 0L410.917 26 410.917 364.001 488.917 390.001 488.917 0" transform="translate(350.083 109.211)"/>
        <path fill="#CA462D" d="M332.917 156.002c-28.719 0-52 23.282-52 52h104c0-28.718-23.281-52-52-52" transform="translate(350.083 109.211)"/>
        <path fill="#FFF" d="M213.348 466.327c5.917 0 10.717 1.116 14.402 3.126 3.684 2.121 6.81 4.801 9.489 7.927l-8.15 8.261c-2.456-2.679-4.8-4.913-7.145-6.364-2.568-1.562-5.359-2.345-8.596-2.345-3.349 0-6.029.894-8.373 2.68-2.233 1.899-3.35 4.02-3.35 6.587 0 1.564.447 2.903 1.228 4.131.782 1.116 1.787 2.233 3.238 3.237 1.34 1.005 3.238 2.122 5.359 3.126l1.654.775c1.716.795 3.62 1.654 5.714 2.575l1.743.782c2.58 1.164 4.996 2.293 7.189 3.572 2.567 1.563 4.912 3.349 6.698 5.136 1.771 1.771 3.057 3.64 4.037 5.787l.205.465c1.005 2.233 1.563 4.912 1.563 7.815 0 3.014-.558 5.805-1.674 8.596-1.047 2.617-2.486 5.037-4.41 7.17l-.391.422c-2.009 2.232-4.577 4.131-7.815 5.582-3.126 1.451-6.921 2.121-11.164 2.121-5.928 0-11.128-1.25-15.7-3.646l-.488-.261c-4.689-2.456-8.597-5.806-11.835-9.937l8.374-8.373c2.903 3.35 6.029 6.029 9.155 7.927 3.126 1.786 6.698 2.791 10.494 2.791 1.898 0 3.461-.335 5.136-.893 1.674-.558 3.014-1.34 4.242-2.344 1.228-1.005 2.01-2.121 2.791-3.573.67-1.452 1.005-2.791 1.005-4.466 0-1.339-.112-2.791-.782-4.131-.558-1.116-1.563-2.456-2.791-3.684-1.339-1.34-3.237-2.344-5.582-3.573-2.233-1.116-4.912-2.344-8.261-3.907-2.247-1.075-4.323-1.978-6.528-3.084l-.953-.488c-2.456-1.229-5.247-2.903-7.256-4.578-2.01-1.674-3.573-3.796-4.689-6.252-1.229-2.233-1.898-4.913-1.898-8.038 0-2.903.669-5.583 1.898-8.039 1.116-2.567 2.791-4.688 4.8-6.587 2.122-1.786 4.578-3.348 7.48-4.353 2.903-1.117 6.588-1.675 9.937-1.675zM12.281 467.89v31.818h38.74V467.89h12.281v78.15H51.021v-34.498h-38.74v34.498H0v-78.15h12.281zm143.013 0v11.5H113.54v20.43h32.042v11.499H113.54v23.222h42.089v11.499h-54.37v-78.15h54.035zm144.241 0c18.533 0 29.697 8.931 29.697 25.231 0 15.742-11.164 25.12-29.697 25.12h-13.174v27.799h-12.28v-78.15h25.454zm116.666 0v11.5h-41.755v20.43h32.042v11.499h-32.042v23.222h42.09v11.499h-54.37v-78.15h54.035zm61.514 0c18.757 0 29.921 9.49 29.921 25.008 0 11.722-6.365 18.979-16.859 21.77l18.869 31.372h-14.738l-16.746-29.139c-1.451.112-4.577.112-6.029.112h-7.927v29.027h-12.28v-78.15h25.789zm77.592 0v78.15h-12.281v-78.15h12.281zm78.374 0l32.156 78.15h-13.18l-7.254-18.198h-37.4l-7.369 18.198h-12.95l32.264-78.15h13.733zm-6.811 13.956h-.335l-.02.035c-.317.624-3.862 9.221-6.567 15.929l-7.479 18.868h28.469l-13.42-33.308c-.384-.935-.62-1.497-.648-1.524zm-327-2.68h-13.509v28.245h13.509c11.388 0 17.081-5.135 17.081-14.179 0-9.378-6.14-14.066-17.081-14.066zm178.403 0h-14.067v27.799h14.514c9.936 0 16.3-3.796 16.3-13.509 0-9.489-6.14-14.29-16.747-14.29z" transform="translate(350.083 109.211)"/>
    </g>
</svg>
