<svg xmlns="http://www.w3.org/2000/svg" width="1366" height="768" viewBox="0 0 1366 768">
    <g fill="none" fill-rule="evenodd"> 
        <path fill="#FFF" d="M541.583 84.383c6.454 0 11.69 1.218 15.709 3.41 4.018 2.314 7.428 5.236 10.35 8.646l-8.889 9.012c-2.679-2.923-5.237-5.359-7.793-6.942-2.801-1.705-5.846-2.557-9.377-2.557-3.654 0-6.576.974-9.134 2.923-2.436 2.07-3.652 4.384-3.652 7.185 0 1.704.486 3.166 1.338 4.506.853 1.217 1.949 2.435 3.532 3.531 1.462 1.096 3.532 2.313 5.845 3.409l1.094.515c2.053.96 4.368 2.005 6.943 3.139l1.745.783c2.873 1.294 5.562 2.545 7.998 3.966 2.8 1.705 5.358 3.653 7.306 5.601 1.942 1.942 3.347 3.99 4.417 6.345l.21.475c1.097 2.436 1.705 5.358 1.705 8.524 0 3.288-.608 6.333-1.826 9.377-1.146 2.866-2.724 5.516-4.834 7.848l-.402.433c-2.193 2.436-4.993 4.506-8.525 6.089-3.41 1.583-7.55 2.314-12.177 2.314-6.475 0-12.152-1.365-17.144-3.987l-.514-.276c-5.115-2.679-9.376-6.332-12.908-10.838l9.133-9.133c3.166 3.654 6.576 6.576 9.985 8.647 3.411 1.948 7.307 3.044 11.448 3.044 2.07 0 3.775-.366 5.601-.975 1.827-.608 3.288-1.461 4.628-2.557 1.339-1.096 2.192-2.314 3.044-3.897.731-1.583 1.096-3.044 1.096-4.871 0-1.461-.121-3.044-.853-4.505-.608-1.218-1.704-2.68-3.044-4.02-1.461-1.46-3.531-2.556-6.089-3.896-2.435-1.218-5.358-2.558-9.011-4.262-2.45-1.173-4.715-2.157-7.118-3.365l-1.04-.532c-2.68-1.34-5.724-3.166-7.916-4.992-2.192-1.828-3.897-4.141-5.115-6.82-1.34-2.436-2.07-5.358-2.07-8.768 0-3.166.73-6.089 2.07-8.768 1.218-2.801 3.044-5.115 5.237-7.184 2.313-1.949 4.992-3.654 8.159-4.75 3.166-1.218 7.184-1.827 10.838-1.827zm-219.317 1.705v34.707h42.257V86.088h13.395v85.244h-13.395v-37.629h-42.257v37.629h-13.395V86.088h13.395zm155.994 0v12.543h-45.544v22.285h34.95v12.544h-34.95v25.329h45.909v12.543H419.32V86.088h58.94zm157.332 0c20.215 0 32.393 9.742 32.393 27.521 0 17.171-12.178 27.4-32.393 27.4h-14.369v30.323h-13.395V86.088h27.764zm127.255 0v12.543h-45.544v22.285h34.951v12.544h-34.951v25.329h45.91v12.543h-59.305V86.088h58.939zm67.098 0c20.454 0 32.634 10.351 32.634 27.278 0 12.786-6.94 20.702-18.39 23.746l20.58 34.22h-16.07l-18.267-31.785c-1.583.123-4.993.123-6.576.123h-8.645v31.662h-13.396V86.088h28.13zm84.634 0v85.244h-13.39V86.088h13.39zm85.49 0l35.07 85.244h-14.37l-7.92-19.85h-40.79l-8.04 19.85h-14.12l35.19-85.244h14.98zm-7.43 15.222h-.37l-.02.035c-.332.65-4.208 10.048-7.16 17.379l-8.16 20.58h31.05l-14.557-36.144c-.463-1.132-.752-1.818-.783-1.85zm-356.681-2.922h-14.735v30.809h14.735c12.422 0 18.632-5.602 18.632-15.465 0-10.23-6.698-15.344-18.632-15.344zm194.596 0h-15.343v30.322h15.83c10.838 0 17.778-4.141 17.778-14.735 0-10.351-6.7-15.587-18.265-15.587zM0 .002L0 257.298 51.46 240.145 51.46 17.154 0 .002M206.156 0L154.696 17.153 154.696 240.145 206.156 257.298 206.156 0" transform="translate(166.431 255.351)"/>
        <path fill="#CA462D" d="M102.92 102.92c-18.947 0-34.307 15.36-34.307 34.307h68.613c0-18.947-15.359-34.307-34.306-34.307" transform="translate(166.431 255.351)"/>
    </g>
</svg>
